<svg xmlns="http://www.w3.org/2000/svg" viewBox="0 0 381.88 124.68"><defs><style>.cls-1{fill:#fff;}</style></defs><title>ewf_horizontal_logo_combo_light</title><g id="Layer_2" data-name="Layer 2"><g id="Layer_1-2" data-name="Layer 1"><path class="cls-1" d="M163.55,62.34H153.29a7.29,7.29,0,0,1-5.44-2A7.37,7.37,0,0,1,145.93,55v-9.5a6.69,6.69,0,0,1,7.36-7.36h3.89A7.42,7.42,0,0,1,162.64,40a7.3,7.3,0,0,1,2,5.44v6a.76.76,0,0,1-.85.86H151c-.35,0-.52.16-.52.47v2c0,2.32,1.15,3.47,3.46,3.47h9.6a.76.76,0,0,1,.85.86v2.37C164.4,62.09,164.12,62.34,163.55,62.34ZM151,49.14h8.5a.42.42,0,0,0,.47-.48v-3a3.65,3.65,0,0,0-.8-2.63,3.51,3.51,0,0,0-2.62-.83H154a3.5,3.5,0,0,0-2.61.83,3.65,3.65,0,0,0-.81,2.63v3A.42.42,0,0,0,151,49.14Z"/><path class="cls-1" d="M175.28,62.34h-3a.71.71,0,0,1-.8-.81V38.93a.71.71,0,0,1,.8-.81h3a.72.72,0,0,1,.81.81v1.7h.19q1.13-2.51,4.79-2.51h2.09a7.08,7.08,0,0,1,5.32,1.9,7.48,7.48,0,0,1,1.85,5.46V61.53c0,.54-.28.81-.85.81h-3a.72.72,0,0,1-.81-.81V45.67q0-3.51-3.47-3.51H180c-2.6,0-3.89,1.34-3.89,4V61.53A.72.72,0,0,1,175.28,62.34Z"/><path class="cls-1" d="M214.84,62.34H204.58A6.72,6.72,0,0,1,197.22,55v-9.5A7.37,7.37,0,0,1,199.14,40a7.38,7.38,0,0,1,5.44-1.92h3.9A7.45,7.45,0,0,1,213.94,40a7.3,7.3,0,0,1,1.95,5.44v6a.76.76,0,0,1-.86.86H202.3c-.35,0-.52.16-.52.47v2c0,2.32,1.16,3.47,3.47,3.47h9.59a.76.76,0,0,1,.86.86v2.37C215.7,62.09,215.41,62.34,214.84,62.34ZM202.3,49.14h8.5a.42.42,0,0,0,.48-.48v-3a3.65,3.65,0,0,0-.81-2.63,3.5,3.5,0,0,0-2.61-.83h-2.61a3.47,3.47,0,0,0-2.61.83,3.65,3.65,0,0,0-.81,2.63v3A.42.42,0,0,0,202.3,49.14Z"/><path class="cls-1" d="M226.57,62.34h-3a.72.72,0,0,1-.81-.81V38.93a.72.72,0,0,1,.81-.81h3a.72.72,0,0,1,.81.81v1.8h.19a3.78,3.78,0,0,1,1.83-1.9,6.43,6.43,0,0,1,3-.71h1.76a.72.72,0,0,1,.81.81V41.4c0,.6-.27.85-.81.76h-2.85q-3.94,0-3.94,4.32V61.53A.72.72,0,0,1,226.57,62.34Z"/><path class="cls-1" d="M249.18,61.15H247a6.91,6.91,0,0,1-5.25-1.92A7.61,7.61,0,0,1,240,53.79V45.48A7.3,7.3,0,0,1,241.91,40a7.4,7.4,0,0,1,5.42-1.92H258c.57,0,.85.27.85.81V62.44a7.21,7.21,0,0,1-2,5.39,7.46,7.46,0,0,1-5.44,1.92h-8.93c-.54,0-.8-.25-.8-.76V66.52a.71.71,0,0,1,.8-.81h8.22q3.47,0,3.47-3.51V58.59H254C253.18,60.3,251.59,61.15,249.18,61.15Zm5-8.07V42.63c0-.32-.18-.47-.53-.47H248q-3.37,0-3.37,3.51v7.88q0,3.53,3.37,3.52h2.28Q254.17,57.07,254.17,53.08Z"/><path class="cls-1" d="M269.27,70h-2.52a.72.72,0,0,1-.81-.81V66.81c0-.57.27-.86.81-.86h1.09q2.9,0,4-1.14a8.93,8.93,0,0,0,1.87-3.75h-1.9a1,1,0,0,1-1-.81l-6.32-21.32c-.13-.54.08-.81.62-.81h3.18a.92.92,0,0,1,.95.81l5.18,18.61h.19l5.17-18.61a.88.88,0,0,1,.95-.81h3c.6,0,.86.28.76.85l-6.51,22.85a14.14,14.14,0,0,1-3.08,6.1A7.46,7.46,0,0,1,269.27,70Z"/><path class="cls-1" d="M311.73,62.34h-4.09a1,1,0,0,1-.95-.81l-5.46-22.6c-.13-.54.07-.81.57-.81h3.42a.84.84,0,0,1,.95.81l3.47,18H310l4.18-18a.86.86,0,0,1,.9-.81h3.14a.93.93,0,0,1,1,.81l4.09,18h.33l3.47-18a.87.87,0,0,1,.95-.81h3.42q.81,0,.57.81l-5.46,22.6a.88.88,0,0,1-.95.81h-4.09a.92.92,0,0,1-.95-.81l-3.8-17.62h-.33l-3.75,17.62A.88.88,0,0,1,311.73,62.34Z"/><path class="cls-1" d="M354.85,62.34H344.59A6.73,6.73,0,0,1,337.23,55v-9.5a6.7,6.7,0,0,1,7.36-7.36h3.9A7.45,7.45,0,0,1,354,40a7.3,7.3,0,0,1,1.95,5.44v6a.76.76,0,0,1-.86.86H342.32c-.35,0-.53.16-.53.47v2c0,2.32,1.16,3.47,3.47,3.47h9.59a.76.76,0,0,1,.86.86v2.37C355.71,62.09,355.42,62.34,354.85,62.34Zm-12.53-13.2h8.5a.42.42,0,0,0,.47-.48v-3a3.65,3.65,0,0,0-.81-2.63,3.48,3.48,0,0,0-2.61-.83h-2.61a3.5,3.5,0,0,0-2.61.83,3.65,3.65,0,0,0-.81,2.63v3A.42.42,0,0,0,342.32,49.14Z"/><path class="cls-1" d="M362.78,61.53V29.76a.72.72,0,0,1,.81-.81h3a.72.72,0,0,1,.81.81V40.49h.19q1.19-2.57,4.8-2.56h2.09a7.45,7.45,0,0,1,5.46,1.92,7.23,7.23,0,0,1,1.95,5.39V55a7.31,7.31,0,0,1-1.95,5.41,7.38,7.38,0,0,1-5.46,2H363.59A.72.72,0,0,1,362.78,61.53Zm5.13-3.23h5.89q3.42,0,3.42-3.51V45.48q0-3.51-3.42-3.51h-2.51q-3.9,0-3.9,4V57.78A.46.46,0,0,0,367.91,58.3Z"/><path class="cls-1" d="M148.83,93.34h-1.56a.37.37,0,0,1-.42-.42V77.83a.37.37,0,0,1,.42-.42h7.78a.37.37,0,0,1,.42.42V79.1a.37.37,0,0,1-.42.42h-5.5c-.2,0-.3.08-.3.25v4.68q0,.27.3.27h4.78q.45,0,.45.42v1.24a.4.4,0,0,1-.45.45h-4.78c-.2,0-.3.08-.3.25v5.84A.37.37,0,0,1,148.83,93.34Z"/><path class="cls-1" d="M167,93.34h-2.87a3.81,3.81,0,0,1-2.84-1,3.85,3.85,0,0,1-1-2.83V81.25a3.8,3.8,0,0,1,1-2.83,3.85,3.85,0,0,1,2.84-1H167a3.89,3.89,0,0,1,2.85,1,3.77,3.77,0,0,1,1,2.83V89.5A3.52,3.52,0,0,1,167,93.34Zm-2.52-2.1h2.15a1.61,1.61,0,0,0,1.81-1.83V81.35a1.61,1.61,0,0,0-1.81-1.83h-2.15a1.6,1.6,0,0,0-1.79,1.83v8.06A1.6,1.6,0,0,0,164.52,91.24Z"/><path class="cls-1" d="M185.06,77.41h1.56c.29,0,.44.13.44.4V89.5a3.79,3.79,0,0,1-1,2.83,3.83,3.83,0,0,1-2.83,1h-2.75a3.51,3.51,0,0,1-3.84-3.84V77.83a.37.37,0,0,1,.42-.42h1.56a.37.37,0,0,1,.42.42V89.41a1.59,1.59,0,0,0,1.78,1.83h2a1.6,1.6,0,0,0,1.8-1.83V77.83A.37.37,0,0,1,185.06,77.41Z"/><path class="cls-1" d="M195,93.34h-1.54a.37.37,0,0,1-.42-.42V77.83a.37.37,0,0,1,.42-.42h1.39a.56.56,0,0,1,.54.27l6,10.78h.1V77.83a.37.37,0,0,1,.42-.42h1.54a.37.37,0,0,1,.42.42V92.92a.37.37,0,0,1-.42.42h-1.34a.76.76,0,0,1-.65-.39l-5.94-10.66h-.1V92.92A.37.37,0,0,1,195,93.34Z"/><path class="cls-1" d="M209.93,92.92V77.83a.38.38,0,0,1,.43-.42h6.09a3.9,3.9,0,0,1,2.84,1,3.78,3.78,0,0,1,1,2.83V89.5a3.54,3.54,0,0,1-3.87,3.84h-6.09A.37.37,0,0,1,209.93,92.92Zm2.68-1.68h3.5a1.6,1.6,0,0,0,1.78-1.83V81.35a1.6,1.6,0,0,0-1.78-1.83h-3.5c-.18,0-.27.08-.27.25V91A.24.24,0,0,0,212.61,91.24Z"/><path class="cls-1" d="M227,93.34h-1.78c-.23,0-.32-.13-.25-.42l4.31-15.09a.56.56,0,0,1,.6-.42h2.48a.53.53,0,0,1,.59.42l4.31,15.09c.07.29,0,.42-.27.42h-1.76a.43.43,0,0,1-.31-.08.73.73,0,0,1-.14-.34l-.94-3.22h-5.45l-.94,3.22C227.41,93.21,227.26,93.34,227,93.34Zm4.07-13.55-2.18,7.93h4.48l-2.2-7.93Z"/><path class="cls-1" d="M246.58,93.34H245c-.3,0-.44-.13-.44-.42V79.77a.22.22,0,0,0-.25-.25h-3.12q-.45,0-.45-.42V77.83q0-.42.45-.42h9.19q.45,0,.45.42V79.1q0,.42-.45.42h-3.12c-.18,0-.28.08-.28.25V92.92A.37.37,0,0,1,246.58,93.34Z"/><path class="cls-1" d="M258,77.83V92.92a.37.37,0,0,1-.42.42H256a.37.37,0,0,1-.42-.42V77.83a.37.37,0,0,1,.42-.42h1.56A.37.37,0,0,1,258,77.83Z"/><path class="cls-1" d="M270.67,93.34H267.8a3.79,3.79,0,0,1-2.84-1,3.86,3.86,0,0,1-1-2.83V81.25a3.51,3.51,0,0,1,3.85-3.84h2.87a3.89,3.89,0,0,1,2.85,1,3.77,3.77,0,0,1,1,2.83V89.5a3.52,3.52,0,0,1-3.87,3.84Zm-2.53-2.1h2.16a1.61,1.61,0,0,0,1.81-1.83V81.35a1.61,1.61,0,0,0-1.81-1.83h-2.16a1.59,1.59,0,0,0-1.78,1.83v8.06A1.59,1.59,0,0,0,268.14,91.24Z"/><path class="cls-1" d="M282.32,93.34h-1.54a.37.37,0,0,1-.42-.42V77.83a.37.37,0,0,1,.42-.42h1.39a.56.56,0,0,1,.54.27l6,10.78h.1V77.83a.37.37,0,0,1,.42-.42h1.54a.37.37,0,0,1,.42.42V92.92a.37.37,0,0,1-.42.42h-1.34a.75.75,0,0,1-.65-.39l-5.94-10.66h-.1V92.92A.37.37,0,0,1,282.32,93.34Z"/><path class="cls-1" d="M62.34,0a62.34,62.34,0,1,0,62.34,62.34A62.34,62.34,0,0,0,62.34,0ZM59.45,93a20.24,20.24,0,0,1-11.64,3.78C40.63,96.78,34,92.84,29,85.67a44.19,44.19,0,0,1-7.2-23.06.78.78,0,0,1,.46-.73l4.88-2.19a.75.75,0,0,1,1.06.69v0c0,8.21,2.17,15.89,6.11,21.62,3.69,5.36,8.47,8.31,13.47,8.31A13.81,13.81,0,0,0,55.39,88a.75.75,0,0,1,1,.18,34.79,34.79,0,0,0,3.13,3.71A.76.76,0,0,1,59.45,93ZM95.6,85.67C90.68,92.84,84,96.78,76.82,96.78S63,92.84,58.05,85.67C53.38,78.88,50.8,69.9,50.8,60.4c0-8.79,5.06-15.66,11.52-15.66S73.83,51.61,73.83,60.4a46.5,46.5,0,0,1-5.28,22.05.77.77,0,0,1-1.25.14,20.53,20.53,0,0,1-1.66-2.14A25.2,25.2,0,0,1,64,77.78a.75.75,0,0,1,0-.67A41.21,41.21,0,0,0,67.38,60.4c0-4.35-2.16-9.22-5.06-9.22s-5.07,4.87-5.07,9.22c0,8.21,2.17,15.89,6.11,21.62,3.69,5.36,8.47,8.31,13.46,8.31s9.78-3,13.47-8.31c3.94-5.73,6.11-13.41,6.11-21.62s-2.17-15.89-6.11-21.63a23.77,23.77,0,0,0-4-4.5A.76.76,0,0,1,86.49,33l4.86-2.19a.75.75,0,0,1,.85.16,30,30,0,0,1,3.4,4.15c4.67,6.8,7.25,15.77,7.25,25.28S100.27,78.88,95.6,85.67Z"/></g></g></svg>