<svg xmlns="http://www.w3.org/2000/svg" viewBox="0 0 310.49 291.55"><defs><style>.cls-1{fill:#fff;}</style></defs><title>ewf_vertical_logo_combo_knockout</title><g id="Layer_2" data-name="Layer 2"><g id="Layer_1-2" data-name="Layer 1"><path class="cls-1" d="M14.81,218.87H9.69a9.71,9.71,0,0,0-7.16,2.53Q0,223.94,0,228.56v12.5a9.67,9.67,0,0,0,2.53,7.12,9.61,9.61,0,0,0,7.16,2.57h13.5c.75,0,1.12-.34,1.12-1v-3.13a1,1,0,0,0-1.12-1.12H10.56Q6,245.5,6,240.93v-2.68q0-.63.69-.63H23.44a1,1,0,0,0,1.12-1.12v-7.94q0-4.62-2.56-7.16A9.82,9.82,0,0,0,14.81,218.87Zm3.69,13.88a.55.55,0,0,1-.63.62H6.69a.55.55,0,0,1-.63-.62v-4a4.82,4.82,0,0,1,1.07-3.47,4.6,4.6,0,0,1,3.43-1.1H14a4.64,4.64,0,0,1,3.44,1.1,4.87,4.87,0,0,1,1.06,3.47Z"/><path class="cls-1" d="M49,218.87H46.25c-3.21,0-5.31,1.11-6.31,3.31h-.25v-2.25a1,1,0,0,0-1.07-1.06H34.69a1,1,0,0,0-1.07,1.06v29.75a1,1,0,0,0,1.07,1.07h3.93a1,1,0,0,0,1.07-1.07V229.5q0-5.33,5.12-5.32h2.94c3,0,4.56,1.55,4.56,4.63v20.87a1,1,0,0,0,1.06,1.07h3.94c.75,0,1.13-.36,1.13-1.07V228.56c0-3.13-.82-5.52-2.44-7.19S52,218.87,49,218.87Z"/><path class="cls-1" d="M82.31,218.87H77.19A9.71,9.71,0,0,0,70,221.4q-2.53,2.53-2.53,7.16v12.5a8.86,8.86,0,0,0,9.69,9.69h13.5c.75,0,1.12-.34,1.12-1v-3.13a1,1,0,0,0-1.12-1.12H78.06q-4.56,0-4.56-4.57v-2.68q0-.63.69-.63H90.94a1,1,0,0,0,1.12-1.12v-7.94q0-4.62-2.56-7.16A9.82,9.82,0,0,0,82.31,218.87ZM86,232.75a.55.55,0,0,1-.63.62H74.19a.55.55,0,0,1-.63-.62v-4a4.87,4.87,0,0,1,1.06-3.47,4.64,4.64,0,0,1,3.44-1.1H81.5a4.64,4.64,0,0,1,3.44,1.1A4.87,4.87,0,0,1,86,228.75Z"/><path class="cls-1" d="M116.12,218.87h-2.31a8.34,8.34,0,0,0-4,.94,4.9,4.9,0,0,0-2.41,2.5h-.25v-2.38a.94.94,0,0,0-1.06-1.06h-3.94a.94.94,0,0,0-1.06,1.06v29.75a1,1,0,0,0,1.06,1.07h3.94a.94.94,0,0,0,1.06-1.07V229.87q0-5.69,5.19-5.69h3.75c.71.13,1.06-.2,1.06-1v-3.25A.94.94,0,0,0,116.12,218.87Z"/><path class="cls-1" d="M148.56,250.87V219.93c0-.7-.38-1.06-1.13-1.06h-14a9.72,9.72,0,0,0-7.12,2.53q-2.57,2.53-2.56,7.16V239.5c0,3.08.8,5.47,2.4,7.15s3.91,2.53,6.91,2.53h2.81q4.75,0,6.31-3.37h.25v4.75q0,4.62-4.56,4.62H127.06a.94.94,0,0,0-1.06,1.07v3.24c0,.67.35,1,1.06,1h11.75A9.79,9.79,0,0,0,146,258,9.44,9.44,0,0,0,148.56,250.87Zm-6.13-12.31q0,5.25-5.12,5.25h-3q-4.44,0-4.44-4.63V228.81c0-3.08,1.48-4.63,4.44-4.63h7.44c.45,0,.68.21.68.63Z"/><path class="cls-1" d="M181.43,218.87h-4a1.16,1.16,0,0,0-1.25,1.06l-6.81,24.5h-.25l-6.81-24.5a1.21,1.21,0,0,0-1.25-1.06h-4.19c-.71,0-1,.36-.81,1.06L164.37,248a1.36,1.36,0,0,0,1.31,1.06h2.5a11.91,11.91,0,0,1-2.47,4.94c-1,1-2.74,1.49-5.28,1.49H159c-.71,0-1.07.38-1.07,1.13v3.19a.94.94,0,0,0,1.07,1.06h3.31q4.88,0,7.5-2.78a18.79,18.79,0,0,0,4.06-8L182.43,220C182.56,219.25,182.22,218.87,181.43,218.87Z"/><path class="cls-1" d="M237.68,249.68l7.19-29.75c.2-.7-.05-1.06-.75-1.06h-4.5a1.15,1.15,0,0,0-1.25,1.06l-4.57,23.63h-.43L228,219.93a1.24,1.24,0,0,0-1.31-1.06h-4.13a1.12,1.12,0,0,0-1.18,1.06l-5.5,23.63h-.44l-4.56-23.63a1.11,1.11,0,0,0-1.25-1.06h-4.5c-.67,0-.92.36-.75,1.06l7.18,29.75a1.27,1.27,0,0,0,1.26,1.07h5.37a1.15,1.15,0,0,0,1.25-1.07l4.94-23.18h.43l5,23.18a1.2,1.2,0,0,0,1.25,1.07h5.37A1.16,1.16,0,0,0,237.68,249.68Z"/><path class="cls-1" d="M266.55,218.87h-5.12a8.81,8.81,0,0,0-9.69,9.69v12.5a9.71,9.71,0,0,0,2.53,7.12,9.61,9.61,0,0,0,7.16,2.57h13.5c.75,0,1.12-.34,1.12-1v-3.13a1,1,0,0,0-1.12-1.12H262.3q-4.56,0-4.56-4.57v-2.68q0-.63.69-.63h16.75a1,1,0,0,0,1.12-1.12v-7.94q0-4.62-2.56-7.16A9.82,9.82,0,0,0,266.55,218.87Zm3.69,13.88a.55.55,0,0,1-.63.62H258.43a.55.55,0,0,1-.63-.62v-4a4.82,4.82,0,0,1,1.07-3.47,4.6,4.6,0,0,1,3.43-1.1h3.44a4.64,4.64,0,0,1,3.44,1.1,4.82,4.82,0,0,1,1.06,3.47Z"/><path class="cls-1" d="M307.93,221.15a9.79,9.79,0,0,0-7.19-2.53H298q-4.75,0-6.31,3.38h-.25V207.87a.94.94,0,0,0-1.07-1.06h-3.93a.94.94,0,0,0-1.07,1.06v41.81a1,1,0,0,0,1.07,1.07h14.31a8.9,8.9,0,0,0,9.75-9.69V228.25A9.58,9.58,0,0,0,307.93,221.15Zm-3.57,19.66q0,4.62-4.5,4.62h-7.75a.6.6,0,0,1-.68-.68V229.18c0-3.5,1.7-5.25,5.12-5.25h3.31c3,0,4.5,1.55,4.5,4.63Z"/><path class="cls-1" d="M71.07,270.58H60.83a.49.49,0,0,0-.56.55V291a.5.5,0,0,0,.56.56h2.05a.5.5,0,0,0,.56-.56V283.3q0-.33.39-.33h6.29a.52.52,0,0,0,.59-.59v-1.63c0-.37-.2-.55-.59-.55H63.83q-.39,0-.39-.36v-6.16q0-.33.39-.33h7.24a.48.48,0,0,0,.55-.55v-1.67A.48.48,0,0,0,71.07,270.58Z"/><path class="cls-1" d="M86.85,270.58H83.07A4.59,4.59,0,0,0,78,275.63v10.86a4.62,4.62,0,0,0,5.06,5.06h3.78a4.65,4.65,0,0,0,5.09-5.06V275.63a5,5,0,0,0-1.34-3.73A5.1,5.1,0,0,0,86.85,270.58Zm1.89,15.78a2.11,2.11,0,0,1-2.38,2.41H83.52a2.1,2.1,0,0,1-2.34-2.41V275.77a2.11,2.11,0,0,1,2.34-2.42h2.84a2.12,2.12,0,0,1,2.38,2.42Z"/><path class="cls-1" d="M112.61,270.58h-2a.49.49,0,0,0-.56.55v15.23a2.11,2.11,0,0,1-2.38,2.41H105a2.1,2.1,0,0,1-2.35-2.41V271.13a.49.49,0,0,0-.56-.55H100a.48.48,0,0,0-.55.55v15.36a4.63,4.63,0,0,0,5,5.06h3.62a5.07,5.07,0,0,0,3.73-1.34,5,5,0,0,0,1.36-3.72V271.1C113.2,270.75,113,270.58,112.61,270.58Z"/><path class="cls-1" d="M134.72,270.58h-2a.49.49,0,0,0-.56.55v14H132l-7.89-14.18a.74.74,0,0,0-.72-.36h-1.82a.49.49,0,0,0-.56.55V291a.5.5,0,0,0,.56.56h2a.49.49,0,0,0,.55-.56V277h.13l7.83,14a1,1,0,0,0,.85.53h1.76a.49.49,0,0,0,.55-.56V271.13A.48.48,0,0,0,134.72,270.58Z"/><path class="cls-1" d="M151.87,270.58h-8a.49.49,0,0,0-.56.55V291a.5.5,0,0,0,.56.56h8a5.07,5.07,0,0,0,3.73-1.34,5,5,0,0,0,1.36-3.72V275.63a5,5,0,0,0-1.36-3.73A5.1,5.1,0,0,0,151.87,270.58Zm1.89,15.78a2.1,2.1,0,0,1-2.35,2.41h-4.59c-.24,0-.36-.11-.36-.35V273.68q0-.33.36-.33h4.59a2.11,2.11,0,0,1,2.35,2.42Z"/><path class="cls-1" d="M173.62,271.13a.7.7,0,0,0-.78-.55h-3.26a.73.73,0,0,0-.79.55L163.12,291c-.09.37,0,.56.33.56h2.34c.31,0,.5-.19.59-.56l1.24-4.24h7.17L176,291a1,1,0,0,0,.18.44.56.56,0,0,0,.41.12h2.31c.33,0,.45-.19.36-.56Zm-5.35,13,2.87-10.43h.13l2.9,10.43Z"/><path class="cls-1" d="M196.54,270.58h-12.1c-.39,0-.58.18-.58.55v1.67c0,.37.19.55.58.55h4.11a.29.29,0,0,1,.33.33V291c0,.37.2.56.59.56h2.05a.5.5,0,0,0,.56-.56V273.68c0-.22.11-.33.35-.33h4.11c.39,0,.59-.18.59-.55v-1.67C197.13,270.76,196.93,270.58,196.54,270.58Z"/><path class="cls-1" d="M203.91,270.58H206a.55.55,0,0,1,.55.55V291a.55.55,0,0,1-.55.55h-2.05a.56.56,0,0,1-.56-.56V271.13A.55.55,0,0,1,203.91,270.58Z"/><path class="cls-1" d="M223.21,270.58h-3.78a4.59,4.59,0,0,0-5.05,5.05v10.86a5.06,5.06,0,0,0,1.32,3.72,5,5,0,0,0,3.73,1.34h3.78a5.07,5.07,0,0,0,3.75-1.34,5,5,0,0,0,1.34-3.72V275.63A5,5,0,0,0,227,271.9,5.1,5.1,0,0,0,223.21,270.58Zm1.9,15.78a2.12,2.12,0,0,1-2.39,2.41h-2.83a2.1,2.1,0,0,1-2.35-2.41V275.77a2.11,2.11,0,0,1,2.35-2.42h2.83a2.13,2.13,0,0,1,2.39,2.42Z"/><path class="cls-1" d="M249.66,270.58h-2a.49.49,0,0,0-.56.55v14H247l-7.89-14.18a.74.74,0,0,0-.72-.36h-1.82a.49.49,0,0,0-.56.55V291a.5.5,0,0,0,.56.56h2a.49.49,0,0,0,.55-.56V277h.13l7.83,14a1,1,0,0,0,.85.53h1.76a.49.49,0,0,0,.55-.56V271.13A.48.48,0,0,0,249.66,270.58Z"/><path class="cls-1" d="M155.24,0a95.54,95.54,0,1,0,95.54,95.53A95.53,95.53,0,0,0,155.24,0Zm-4.43,142.52A31,31,0,0,1,133,148.31c-11,0-21.23-6.05-28.78-17-6.6-9.6-10.46-22-11-35.34a1.19,1.19,0,0,1,.69-1.12l7.48-3.36A1.16,1.16,0,0,1,103,92.53v0c0,12.59,3.32,24.35,9.36,33.14,5.65,8.21,13,12.74,20.64,12.74a21.16,21.16,0,0,0,11.61-3.64,1.17,1.17,0,0,1,1.58.28,51.7,51.7,0,0,0,4.8,5.68A1.16,1.16,0,0,1,150.81,142.52Zm55.41-11.23c-7.55,11-17.77,17-28.78,17s-21.23-6.05-28.77-17c-7.16-10.42-11.11-24.17-11.11-38.74,0-13.45,7.75-24,17.65-24s17.64,10.54,17.64,24a71.29,71.29,0,0,1-8.09,33.8,1.18,1.18,0,0,1-1.92.22,34.67,34.67,0,0,1-2.54-3.28,41.47,41.47,0,0,1-2.47-4.09,1.17,1.17,0,0,1,0-1A63.19,63.19,0,0,0,163,92.55c0-6.66-3.32-14.11-7.76-14.11s-7.77,7.45-7.77,14.11c0,12.59,3.33,24.35,9.37,33.14,5.65,8.21,13,12.74,20.63,12.74s15-4.53,20.63-12.74c6-8.79,9.37-20.55,9.37-33.14s-3.33-24.35-9.37-33.13a35.62,35.62,0,0,0-6.1-6.9,1.17,1.17,0,0,1,.28-2l7.44-3.35a1.18,1.18,0,0,1,1.32.24,48.87,48.87,0,0,1,5.21,6.36c7.16,10.41,11.1,24.17,11.1,38.73S213.38,120.87,206.22,131.29Z"/></g></g></svg>